#!OML:ASF F:\VICON\USERDATA\INSTALL\rory3\rory3.ASF
:FULLY-SPECIFIED
:DEGREES
2120
root -2.20661 14.666 17.8248 727.256 25.4106 50.4185
lowerback -22.5887 -10.6796 2.35931
upperback -18.0086 -13.7494 1.98356
thorax -7.89466 -7.1547 -1.12847
lowerneck 1.63245 -23.3971 -17.9928
upperneck -9.35116 -31.749 34.4783
head 5.92937 -15.6267 9.72436
rclavicle -2.22639e-014 4.13472e-014
rhumerus -13.8989 -44.114 24.9288
rradius 37.4396
rwrist -14.1032
rhand -22.7034 -51.5523
rfingers 7.12502
rthumb -176.27 458.501
lclavicle -2.22639e-014 4.13472e-014
lhumerus -3.67774 15.0166 8.57271
lradius 24.0858
lwrist 36.215
lhand -28.4732 -13.3545
lfingers 7.12502
lthumb -1.84295 16.6173
rfemur -36.9595 -4.48446 33.4785
rtibia 54.3934
rfoot 0.327725 -22.337
rtoes 30.9676
lfemur 8.04349 28.2909 -7.62547
ltibia 83.3199
lfoot 12.1214 -2.1616
ltoes 4.27976
2121
root -2.1761 14.6681 17.8095 727.873 25.7243 50.5599
lowerback -22.7739 -10.6651 2.56878
upperback -18.0039 -13.7538 2.01835
thorax -7.84401 -7.17364 -1.22848
lowerneck 1.87412 -23.2472 -17.9966
upperneck -9.44991 -31.5356 34.6317
head 5.84911 -15.5618 9.86525
rclavicle 3.18055e-015 -9.54166e-015
rhumerus -13.5647 -44.4825 24.5321
rradius 37.331
rwrist -13.8294
rhand -21.232 -52.2737
rfingers 7.12502
rthumb -174.85 457.809
lclavicle 3.18055e-015 -9.54166e-015
lhumerus -3.64704 15.7447 8.4798
lradius 23.8612
lwrist 35.2881
lhand -27.5028 -13.6033
lfingers 7.12502
lthumb -0.905667 16.3745
rfemur -37.0318 -4.37024 33.68
rtibia 54.3387
rfoot 0.133235 -22.264
rtoes 30.2293
lfemur 8.03004 28.4533 -7.38395
ltibia 83.2948
lfoot 12.0758 -2.28451
ltoes 3.68748
2122
root -2.1457 14.6651 17.7866 728.477 25.9866 50.8434
lowerback -22.7873 -10.6709 2.62935
upperback -17.9994 -13.764 2.06571
thorax -7.83429 -7.17919 -1.21366
lowerneck 2.03417 -23.1476 -17.8574
upperneck -9.81769 -31.2899 34.835
head 5.6817 -15.4971 10.0104
rclavicle 3.18055e-015 -5.08889e-014
rhumerus -13.292 -44.4711 24.2911
rradius 37.2405
rwrist -13.6296
rhand -20.39 -52.3552
rfingers 7.12502
rthumb -174.037 457.749
lclavicle 3.18055e-015 -5.08889e-014
lhumerus -3.73519 15.8341 8.32803
lradius 23.7973
lwrist 35.1662
lhand -27.4501 -13.7606
lfingers 7.12502
lthumb -0.854775 16.2174
rfemur -37.0498 -4.24534 33.7595
rtibia 54.2611
rfoot 0.115215 -22.2344
rtoes 29.1506
lfemur 7.99466 28.6307 -7.29169
ltibia 83.3131
lfoot 12.1288 -2.4905
ltoes 3.18537
2123
root -2.10928 14.6648 17.7589 729.029 26.3904 51.1366
lowerback -22.6727 -10.603 2.7141
upperback -17.9531 -13.6889 1.97659
thorax -7.87551 -7.1519 -1.32246
lowerneck 1.8838 -23.218 -17.6367
upperneck -9.94003 -31.3201 34.9785
head 5.67316 -15.5095 10.0042
rclavicle 3.81667e-014 9.54166e-014
rhumerus -13.7403 -43.5758 24.7592
rradius 37.3291
rwrist -14.3428
rhand -20.4588 -52.4001
rfingers 7.12502
rthumb -174.103 457.702
lclavicle 3.81667e-014 9.54166e-014
lhumerus -3.58022 14.8979 8.29639
lradius 24.0192
lwrist 36.2567
lhand -28.6551 -13.8071
lfingers 7.12502
lthumb -2.01859 16.1631
rfemur -36.9981 -4.3365 33.8192
rtibia 54.2028
rfoot 0.230778 -22.1709
rtoes 29.4706
lfemur 7.99372 28.6115 -7.22105
ltibia 83.3458
lfoot 12.1242 -2.75438
ltoes 3.36075
2124
root -2.07286 14.6692 17.7311 729.62 26.793 51.4776
lowerback -22.5847 -10.5864 2.80044
upperback -18.0701 -13.6682 1.96859
thorax -8.08507 -7.15098 -1.33449
lowerneck 2.09626 -23.1605 -17.9472
upperneck -9.66635 -31.3623 34.9615
head 5.77869 -15.5227 10.0378
rclavicle 1.145e-013 1.90833e-014
rhumerus -13.8745 -42.7591 25.0316
rradius 37.5443
rwrist -14.9785
rhand -19.7796 -53.0637
rfingers 7.12502
rthumb -173.447 457.058
lclavicle 1.145e-013 1.90833e-014
lhumerus -4.07878 12.5832 7.96445
lradius 24.7242
lwrist 38.4991
lhand -29.5639 -13.7545
lfingers 7.12502
lthumb -2.89632 16.2055
rfemur -36.9726 -4.41889 33.8082
rtibia 54.1821
rfoot 0.0767257 -21.9988
rtoes 30.5349
lfemur 7.99528 28.5435 -7.27696
ltibia 83.3378
lfoot 12.074 -2.69356
ltoes 3.84395
2125
root -2.03868 14.6723 17.7107 730.324 27.1174 52.0915
lowerback -22.5396 -10.5435 2.70427
upperback -17.8719 -13.5993 1.99845
thorax -7.82442 -7.09497 -1.27349
lowerneck 1.1863 -23.3833 -18.0547
upperneck -9.60079 -31.5853 34.9934
head 6.02335 -15.5351 9.8643
rclavicle 1.20861e-013 0
rhumerus -14.0677 -43.9644 25.3437
rradius 37.5305
rwrist -14.2507
rhand -18.4959 -53.4363
rfingers 7.12502
rthumb -172.208 456.727
lclavicle 1.20861e-013 0
lhumerus -4.49043 11.6345 7.82406
lradius 25.3098
lwrist 40.0955
lhand -29.7455 -13.4597
lfingers 7.12502
lthumb -3.07166 16.4979
rfemur -37.0085 -4.41807 33.5396
rtibia 54.2161
rfoot 0.197058 -21.8195
rtoes 36.8204
lfemur 8.06922 28.5323 -7.59464
ltibia 83.2716
lfoot 12.0915 -2.33435
ltoes 4.44536
2126
root -2.00302 14.6687 17.6982 730.958 27.5883 52.5827
lowerback -22.5663 -10.5387 2.66328
upperback -17.687 -13.5862 1.99299
thorax -7.57554 -7.07612 -1.29257
lowerneck 0.519329 -23.5702 -18.1517
upperneck -9.60888 -31.772 35.1057
head 6.21522 -15.5575 9.75723
rclavicle 1.59028e-015 -8.5875e-014
rhumerus -14.1109 -44.8813 25.4185
rradius 37.4846
rwrist -13.5867
rhand -18.4206 -52.9913
rfingers 7.12502
rthumb -172.136 457.175
lclavicle 1.59028e-015 -8.5875e-014
lhumerus -4.45278 12.2735 7.96849
lradius 25.3064
lwrist 39.9073
lhand -29.3438 -13.1975
lfingers 7.12502
lthumb -2.68372 16.7654
rfemur -37.0441 -4.48633 33.4464
rtibia 54.2467
rfoot 0.682644 -21.7321
rtoes 37.7515
lfemur 8.16353 28.5131 -7.56524
ltibia 83.2564
lfoot 12.1326 -2.40309
ltoes 3.99831
2127
root -1.96641 14.6585 17.6855 731.58 28.0605 52.9456
lowerback -22.6649 -10.6166 2.5885
upperback -17.8679 -13.6587 1.95608
thorax -7.74666 -7.11231 -1.29303
lowerneck 1.31636 -23.4339 -18.4046
upperneck -9.66857 -31.6683 35.1379
head 6.09591 -15.586 9.92592
rclavicle 6.83819e-014 5.40694e-014
rhumerus -13.6795 -44.5157 24.9981
rradius 37.5345
rwrist -13.3503
rhand -18.8854 -52.6218
rfingers 7.12502
rthumb -172.584 457.528
lclavicle 6.83819e-014 5.40694e-014
lhumerus -4.45198 12.5034 7.99655
lradius 25.149
lwrist 39.2205
lhand -28.5859 -13.3003
lfingers 7.12502
lthumb -1.95176 16.6705
rfemur -37.1076 -4.5283 33.5371
rtibia 54.2345
rfoot 1.39005 -21.6059
rtoes 36.4417
lfemur 8.14772 28.5489 -7.33417
ltibia 83.3307
lfoot 12.0745 -2.78881
ltoes 2.97697
